<svg xmlns="http://www.w3.org/2000/svg" width="72.87" height="72.854" viewBox="0 0 72.87 72.854">
  <path id="Icon_awesome-instagram" data-name="Icon awesome-instagram" d="M36.438,19.986A18.679,18.679,0,1,0,55.116,38.664,18.649,18.649,0,0,0,36.438,19.986Zm0,30.822A12.144,12.144,0,1,1,48.581,38.664,12.166,12.166,0,0,1,36.438,50.808Zm23.8-31.586a4.357,4.357,0,1,1-4.357-4.357A4.347,4.347,0,0,1,60.237,19.222Zm12.371,4.422C72.332,17.807,71,12.638,66.723,8.379c-4.259-4.259-9.429-5.592-15.265-5.885-6.015-.341-24.043-.341-30.058,0C15.581,2.77,10.411,4.1,6.136,8.362S.543,17.791.251,23.627c-.341,6.015-.341,24.043,0,30.058C.527,59.522,1.86,64.691,6.136,68.95s9.429,5.592,15.265,5.885c6.015.341,24.043.341,30.058,0,5.836-.276,11.006-1.609,15.265-5.885,4.259-4.259,5.592-9.429,5.885-15.265.341-6.015.341-24.027,0-30.042Zm-7.771,36.5a12.294,12.294,0,0,1-6.925,6.925c-4.8,1.9-16.175,1.463-21.475,1.463s-16.7.423-21.475-1.463a12.294,12.294,0,0,1-6.925-6.925c-1.9-4.8-1.463-16.175-1.463-21.475s-.423-16.7,1.463-21.475a12.294,12.294,0,0,1,6.925-6.925c4.8-1.9,16.175-1.463,21.475-1.463s16.7-.423,21.475,1.463a12.294,12.294,0,0,1,6.925,6.925c1.9,4.8,1.463,16.175,1.463,21.475S66.74,55.36,64.838,60.139Z" transform="translate(0.005 -2.238)" fill="#008cff"/>
</svg>
