<svg xmlns="http://www.w3.org/2000/svg" width="25.952" height="29.659" viewBox="0 0 25.952 29.659">
  <path id="Icon_awesome-trash" data-name="Icon awesome-trash" d="M25.025,1.854H18.074L17.529.77A1.39,1.39,0,0,0,16.284,0H9.662a1.374,1.374,0,0,0-1.24.77L7.878,1.854H.927A.927.927,0,0,0,0,2.781V4.634a.927.927,0,0,0,.927.927h24.1a.927.927,0,0,0,.927-.927V2.781A.927.927,0,0,0,25.025,1.854ZM3.082,27.052a2.781,2.781,0,0,0,2.775,2.607H20.1a2.78,2.78,0,0,0,2.775-2.606L24.1,7.415H1.854Z" fill="#fff"/>
</svg>
