<svg xmlns="http://www.w3.org/2000/svg" width="89.764" height="60.593" viewBox="0 0 89.764 60.593">
  <path id="Icon_zocial-email" data-name="Icon zocial-email" d="M.072,59.295V9.435q0-.087.26-1.645l29.344,25.1L.418,61.026a7.336,7.336,0,0,1-.346-1.731Zm3.9-54.967a3.73,3.73,0,0,1,1.472-.26H84.47a4.9,4.9,0,0,1,1.558.26L56.6,29.517l-3.9,3.116L45,38.952l-7.7-6.319-3.9-3.116ZM4.054,64.4,33.571,36.1,45,45.358,56.424,36.1,85.941,64.4a4.156,4.156,0,0,1-1.472.26H5.439a3.92,3.92,0,0,1-1.385-.26ZM60.319,32.893,89.577,7.79a5.167,5.167,0,0,1,.26,1.645v49.86a6.635,6.635,0,0,1-.26,1.731Z" transform="translate(-0.072 -4.068)" fill="#008cff"/>
</svg>
