<?xml version="1.0" encoding="UTF-8" standalone="no"?><!-- Generator: Gravit.io --><svg xmlns="http://www.w3.org/2000/svg" xmlns:xlink="http://www.w3.org/1999/xlink" style="isolation:isolate" viewBox="0 0 40 32" width="40pt" height="32pt"><defs><clipPath id="_clipPath_nSHX1aTtd9jdMQIX5OlOk3O6IBfg9n4b"><rect width="40" height="32"/></clipPath></defs><g clip-path="url(#_clipPath_nSHX1aTtd9jdMQIX5OlOk3O6IBfg9n4b)"><path d=" M 39.758 15.05 C 36.014 8.022 28.379 3.559 20 3.5 C 11.621 3.56 3.986 8.023 0.242 15.051 C -0.081 15.649 -0.081 16.354 0.242 16.952 C 3.987 23.979 11.621 28.441 20 28.5 C 28.379 28.44 36.013 23.978 39.758 16.951 C 40.081 16.353 40.081 15.648 39.758 15.05 Z  M 20 25.376 C 14.477 25.376 10 21.178 10 16 C 10 10.822 14.477 6.624 20 6.624 C 25.523 6.624 30 10.822 30 16 C 30 18.487 28.947 20.872 27.071 22.63 C 25.196 24.388 22.652 25.376 20 25.376 Z  M 20 9.75 C 19.405 9.758 18.814 9.841 18.243 9.997 C 19.216 11.237 19.078 12.958 17.916 14.046 C 16.755 15.135 14.92 15.265 13.597 14.353 C 12.85 16.934 13.941 19.675 16.311 21.165 C 18.68 22.655 21.799 22.563 24.063 20.935 C 26.327 19.308 27.232 16.508 26.312 13.976 C 25.393 11.444 22.853 9.743 20 9.75 L 20 9.75 Z " fill="rgb(108,117,125)"/></g></svg>