<svg xmlns="http://www.w3.org/2000/svg" width="35.102" height="23.401" viewBox="0 0 35.102 23.401">
  <path id="Icon_awesome-eye" data-name="Icon awesome-eye" d="M34.89,15.311A19.546,19.546,0,0,0,17.551,4.5,19.549,19.549,0,0,0,.212,15.312a1.971,1.971,0,0,0,0,1.779A19.546,19.546,0,0,0,17.551,27.9,19.549,19.549,0,0,0,34.89,17.09,1.971,1.971,0,0,0,34.89,15.311ZM17.551,24.976A8.776,8.776,0,1,1,26.327,16.2,8.776,8.776,0,0,1,17.551,24.976Zm0-14.626a5.808,5.808,0,0,0-1.542.231,2.916,2.916,0,0,1-4.077,4.077,5.837,5.837,0,1,0,5.619-4.308Z" transform="translate(0 -4.5)" fill="#fff"/>
</svg>
