<svg xmlns="http://www.w3.org/2000/svg" width="72.581" height="34.875" viewBox="0 0 72.581 34.875">
  <g id="Grupo_1639" data-name="Grupo 1639" transform="translate(4042.917 174.938)">
    <path id="Icon_ionic-ios-warning" data-name="Icon ionic-ios-warning" d="M19.8,5.944,3.72,35.3a2.761,2.761,0,0,0,2.461,4.078H38.359A2.767,2.767,0,0,0,40.82,35.3L24.727,5.944A2.819,2.819,0,0,0,19.8,5.944Zm4.06,12.179L23.537,29.2H20.994l-.327-11.08Zm-1.6,17.111A1.672,1.672,0,1,1,24,33.563,1.687,1.687,0,0,1,22.266,35.234Z" transform="translate(-4046.292 -179.438)" fill="#fff"/>
    <path id="Icon_awesome-money-bill-wave-alt" data-name="Icon awesome-money-bill-wave-alt" d="M29.618,3.321A14.12,14.12,0,0,0,24.067,2.25c-5.873,0-11.745,2.972-17.618,2.972a14.467,14.467,0,0,1-4.418-.654,1.63,1.63,0,0,0-.493-.077A1.517,1.517,0,0,0,0,6.008V21.135a1.516,1.516,0,0,0,.9,1.4,14.112,14.112,0,0,0,5.551,1.071c5.873,0,11.746-2.973,17.619-2.973a14.467,14.467,0,0,1,4.418.654,1.63,1.63,0,0,0,.493.077,1.517,1.517,0,0,0,1.538-1.517V4.726a1.518,1.518,0,0,0-.9-1.405ZM15.258,17.508c-2.107,0-3.814-2.05-3.814-4.577s1.708-4.577,3.814-4.577,3.814,2.049,3.814,4.577S17.364,17.508,15.258,17.508Z" transform="translate(-4000.852 -171.5)" fill="#fff"/>
  </g>
</svg>
